<svg width="720" height="460" viewBox="0 0 720 460" fill="none" xmlns="http://www.w3.org/2000/svg">
  <rect width="720" height="460" rx="32" fill="url(#paint0_linear)" />
  <rect x="28" y="32" width="664" height="396" rx="24" fill="#F8FAFF" />
  <rect x="60" y="64" width="108" height="16" rx="8" fill="#C9D8FF" />
  <circle cx="625" cy="72" r="8" fill="#C9D8FF" />
  <circle cx="649" cy="72" r="8" fill="#DDE9FF" />
  <circle cx="673" cy="72" r="8" fill="#EAF1FF" />
  <rect x="60" y="104" width="196" height="284" rx="18" fill="url(#paint1_linear)" />
  <rect x="284" y="104" width="334" height="122" rx="16" fill="#FFFFFF" />
  <rect x="284" y="246" width="334" height="142" rx="16" fill="#FFFFFF" />
  <rect x="76" y="130" width="84" height="12" rx="6" fill="#FFFFFF" />
  <rect x="76" y="152" width="108" height="12" rx="6" fill="#FFFFFF" opacity="0.8" />
  <rect x="76" y="174" width="120" height="12" rx="6" fill="#FFFFFF" opacity="0.6" />
  <rect x="76" y="234" width="136" height="60" rx="12" fill="#FFFFFF" opacity="0.85" />
  <rect x="76" y="310" width="136" height="60" rx="12" fill="#FFFFFF" opacity="0.6" />
  <path d="M316 171.5C337 143 371 127 406 129.5C441 132 469 154 501 161C533 168 565 158 602 134" stroke="url(#paint2_linear)" stroke-width="10" stroke-linecap="round" />
  <rect x="308" y="138" width="68" height="16" rx="8" fill="#D1DEF6" />
  <rect x="388" y="138" width="96" height="16" rx="8" fill="#E1EAF9" />
  <rect x="492" y="138" width="84" height="16" rx="8" fill="#F2F6FD" />
  <rect x="308" y="192" width="120" height="14" rx="7" fill="#E1EAF9" />
  <rect x="444" y="192" width="84" height="14" rx="7" fill="#F2F6FD" />
  <rect x="548" y="192" width="44" height="14" rx="7" fill="#D1DEF6" />
  <rect x="316" y="282" width="272" height="20" rx="10" fill="#EEF3FF" />
  <rect x="316" y="314" width="192" height="20" rx="10" fill="#E1EAF9" />
  <rect x="316" y="346" width="224" height="20" rx="10" fill="#EEF3FF" />
  <rect x="316" y="378" width="128" height="20" rx="10" fill="#D1DEF6" />
  <rect x="528" y="314" width="76" height="20" rx="10" fill="#D1DEF6" />
  <rect x="540" y="346" width="64" height="20" rx="10" fill="#E1EAF9" />
  <defs>
    <linearGradient id="paint0_linear" x1="32" y1="12" x2="604" y2="446" gradientUnits="userSpaceOnUse">
      <stop stop-color="#002776" />
      <stop offset="0.55" stop-color="#005AB5" />
      <stop offset="1" stop-color="#00923F" />
    </linearGradient>
    <linearGradient id="paint1_linear" x1="60" y1="104" x2="248" y2="388" gradientUnits="userSpaceOnUse">
      <stop stop-color="#0055A4" />
      <stop offset="1" stop-color="#37B578" />
    </linearGradient>
    <linearGradient id="paint2_linear" x1="316" y1="135" x2="602" y2="182" gradientUnits="userSpaceOnUse">
      <stop stop-color="#0055A4" />
      <stop offset="1" stop-color="#37B578" />
    </linearGradient>
  </defs>
</svg>
